<svg xmlns="http://www.w3.org/2000/svg" version="1.1" xmlns:xlink="http://www.w3.org/1999/xlink" xmlns:svgjs="http://svgjs.dev/svgjs" width="1500" height="246" viewBox="0 0 1500 246"><g transform="matrix(1,0,0,1,0.5678980373913873,3.3257950179792033)"><svg viewBox="0 0 396 65" data-background-color="#ffffff" preserveAspectRatio="xMidYMid meet" height="246" width="1500" xmlns="http://www.w3.org/2000/svg" xmlns:xlink="http://www.w3.org/1999/xlink"><g id="tight-bounds" transform="matrix(1,0,0,1,0.2400000000000091,0.23414912666163445)"><svg viewBox="0 0 395.52 64.53170174667675" height="64.53170174667675" width="395.52"><g><svg viewBox="0 0 527.0650216685546 85.9941413314646" height="64.53170174667675" width="395.52"><g><rect width="5.61146194734105" height="62.53553693062367" x="111.24386875958776" y="11.729302200420467" fill="#2563eb" opacity="1" stroke-width="0" stroke="transparent" fill-opacity="1" class="rect-yte-0" data-fill-palette-color="primary" rx="1%" id="yte-0" data-palette-color="#2563eb"></rect></g><g transform="matrix(1,0,0,1,131.5450216685546,11.88486323756132)"><svg viewBox="0 0 395.52 62.224414856341966" height="62.224414856341966" width="395.52"><g id="textblocktransform"><svg viewBox="0 0 395.52 62.224414856341966" height="62.224414856341966" width="395.52" id="textblock"><g><svg viewBox="0 0 395.52 62.224414856341966" height="62.224414856341966" width="395.52"><g transform="matrix(1,0,0,1,0,0)"><svg width="395.52" viewBox="1.63 -33.13 214.03 33.68" height="62.224414856341966" data-palette-color="#2563eb"><g class="wordmark-text-0" data-fill-palette-color="primary" id="text-0"><path d="M15.35-31.28L15.35 0 11.2 0 11.2-31.28 15.35-31.28ZM24.93-31.95L24.93-28.48 1.63-28.48 1.63-31.95 24.93-31.95ZM48.35-15.8L48.35 0 44.32 0 44.5-5.93 44.35-6.55 44.35-14.33 44.37-15.75Q44.37-18.73 42.86-20.15 41.35-21.58 38.07-21.58L38.07-21.58Q35.45-21.58 33.26-20.83 31.07-20.08 29.37-19.07L29.37-19.07 29.75-22.53Q30.7-23.1 32.01-23.66 33.32-24.23 35.01-24.6 36.7-24.98 38.72-24.98L38.72-24.98Q41.35-24.98 43.19-24.34 45.02-23.7 46.16-22.5 47.3-21.3 47.82-19.6 48.35-17.9 48.35-15.8L48.35-15.8ZM35.92 0.53L35.92 0.53Q32.3 0.53 30.36-1.24 28.42-3 28.42-6.28L28.42-6.28 28.42-7Q28.42-10.38 30.51-12.04 32.6-13.7 37.15-14.35L37.15-14.35 44.87-15.45 45.1-12.5 37.65-11.43Q34.85-11.03 33.65-10.06 32.45-9.1 32.45-7.23L32.45-7.23 32.45-6.83Q32.45-4.9 33.63-3.88 34.82-2.85 37.2-2.85L37.2-2.85Q39.3-2.85 40.8-3.58 42.3-4.3 43.22-5.53 44.15-6.75 44.47-8.25L44.47-8.25 45.1-5.5 44.32-5.5Q43.97-3.9 43.01-2.53 42.05-1.15 40.32-0.31 38.6 0.53 35.92 0.53ZM58.7-33.13L58.7 0 54.67 0 54.67-33.13 58.7-33.13ZM75.67 0.55L75.67 0.55Q70.09 0.55 67.27-2.18 64.44-4.9 64.44-9.98L64.44-9.98 64.44-14.33Q64.44-19.48 67.07-22.26 69.69-25.05 74.74-25.05L74.74-25.05Q78.14-25.05 80.42-23.79 82.69-22.53 83.84-20.2 84.99-17.88 84.99-14.65L84.99-14.65 84.99-13.75Q84.99-12.95 84.93-12.15 84.87-11.35 84.77-10.58L84.77-10.58 81.04-10.58Q81.09-11.78 81.11-12.85 81.12-13.93 81.12-14.83L81.12-14.83Q81.12-17.05 80.41-18.59 79.69-20.13 78.28-20.94 76.87-21.75 74.74-21.75L74.74-21.75Q71.59-21.75 70.02-19.93 68.44-18.1 68.44-14.7L68.44-14.7 68.44-12.38 68.47-11.88 68.47-9.55Q68.47-8.03 68.92-6.8 69.37-5.58 70.33-4.69 71.29-3.8 72.78-3.34 74.27-2.88 76.32-2.88L76.32-2.88Q78.69-2.88 80.74-3.5 82.79-4.13 84.59-5.2L84.59-5.2 84.22-1.7Q82.59-0.68 80.44-0.06 78.29 0.55 75.67 0.55ZM83.92-13.63L83.92-10.58 66.57-10.58 66.57-13.63 83.92-13.63ZM110.77-15.63L110.77 0 106.72 0 106.72-15.18Q106.72-17.15 106.18-18.57 105.64-20 104.43-20.79 103.22-21.58 101.12-21.58L101.12-21.58Q99.19-21.58 97.78-20.85 96.37-20.13 95.49-18.89 94.62-17.65 94.27-16.07L94.27-16.07 93.54-18.95 94.42-18.95Q94.81-20.6 95.81-21.96 96.81-23.33 98.5-24.14 100.19-24.95 102.64-24.95L102.64-24.95Q105.54-24.95 107.33-23.85 109.12-22.75 109.94-20.69 110.77-18.63 110.77-15.63L110.77-15.63ZM94.44-18.32L94.44 0 90.39 0 90.39-24.4 94.44-24.4 94.27-18.55 94.44-18.32ZM125.91 0.5L125.91 0.5Q123.09 0.5 121.36-0.35 119.64-1.2 118.86-2.93 118.09-4.65 118.09-7.23L118.09-7.23 118.09-22.63 122.09-22.63 122.09-7.7Q122.09-5.3 123.19-4.16 124.29-3.03 126.89-3.03L126.89-3.03Q128.36-3.03 129.73-3.35 131.09-3.68 132.29-4.28L132.29-4.28 131.91-0.8Q130.74-0.2 129.16 0.15 127.59 0.5 125.91 0.5ZM132.04-24.05L131.66-20.8 114.09-20.8 114.09-24.05 132.04-24.05ZM122.16-31.03L121.99-23.65 118.11-23.65 118.09-30.5 122.16-31.03ZM137.29-31.95L141.44-31.95 141.44 0 137.29 0 137.29-31.95ZM156.59-31.95L160.74-31.95 160.74 0 156.59 0 156.59-31.95ZM158.24-14.73L139.66-14.73 139.66-18.23 158.24-18.23 158.24-14.73ZM167.51-8.78L167.51-24.4 171.53-24.4 171.53-9.22Q171.53-7.3 172.07-5.86 172.61-4.42 173.83-3.64 175.06-2.85 177.13-2.85L177.13-2.85Q179.08-2.85 180.48-3.56 181.88-4.28 182.77-5.53 183.66-6.78 183.98-8.35L183.98-8.35 184.71-5.48 183.83-5.48Q183.46-3.83 182.46-2.46 181.46-1.1 179.77-0.29 178.08 0.53 175.61 0.53L175.61 0.53Q172.73 0.53 170.95-0.56 169.16-1.65 168.33-3.74 167.51-5.83 167.51-8.78L167.51-8.78ZM183.81-6.1L183.81-24.4 187.86-24.4 187.86 0 183.81 0 183.98-5.85 183.81-6.1ZM206.48 0.53L206.48 0.53Q204.23 0.53 202.57-0.23 200.91-0.98 199.88-2.38 198.86-3.78 198.51-5.63L198.51-5.63 197.16-5.63 198.38-9.43Q198.51-7.23 199.42-5.76 200.33-4.3 201.86-3.58 203.38-2.85 205.31-2.85L205.31-2.85Q208.36-2.85 209.97-4.65 211.58-6.45 211.58-10L211.58-10 211.58-14.58Q211.58-18.05 209.96-19.85 208.33-21.65 205.23-21.65L205.23-21.65Q203.38-21.65 201.96-20.93 200.53-20.2 199.59-18.95 198.66-17.7 198.31-16.1L198.31-16.1 197.38-18.93 198.53-18.93Q198.91-20.6 199.87-21.96 200.83-23.33 202.51-24.14 204.18-24.95 206.66-24.95L206.66-24.95Q211.06-24.95 213.36-22.21 215.66-19.48 215.66-14.28L215.66-14.28 215.66-10.23Q215.66-4.98 213.32-2.23 210.98 0.53 206.48 0.53ZM198.33-5.9L198.51 0 194.46 0 194.46-33.13 198.48-33.13 198.48-25.18 198.36-18.18 198.38-17.4 198.38-7.2 198.33-5.9Z" fill="#2563eb" data-fill-palette-color="primary"></path></g></svg></g></svg></g></svg></g></svg></g><g><svg viewBox="0 0 96.55417779796197 85.9941413314646" height="85.9941413314646" width="96.55417779796197"><g><svg xmlns="http://www.w3.org/2000/svg" xmlns:xlink="http://www.w3.org/1999/xlink" version="1.1" x="0" y="0" viewBox="3.6009947047444157 8.677 92.79600922706547 82.64699999999999" enable-background="new 0 0 100 100" xml:space="preserve" height="85.9941413314646" width="96.55417779796197" class="icon-icon-0" data-fill-palette-color="accent" id="icon-0"><g fill="#2563eb" data-fill-palette-color="accent"><path d="M96.349 27.217A4.98 4.98 0 0 0 91.373 22.241H65.445V15.549A6.88 6.88 0 0 0 58.573 8.677H41.427A6.88 6.88 0 0 0 34.555 15.549V22.241H8.629A4.98 4.98 0 0 0 3.651 27.212L3.601 50.882A2 2 0 0 0 4.728 52.686 78 78 0 0 0 7.963 54.14V86.348A4.98 4.98 0 0 0 12.939 91.324H87.059A4.98 4.98 0 0 0 92.035 86.348V53.658A70 70 0 0 0 95.33 52.04 2 2 0 0 0 96.397 50.267zM38.555 15.549A2.875 2.875 0 0 1 41.427 12.677H58.573C60.13 12.677 61.445 13.992 61.445 15.549V22.241H38.555zM88.036 86.348C88.036 86.868 87.58 87.324 87.06 87.324H12.94A0.99 0.99 0 0 1 11.964 86.348V55.727C20.67 58.924 30.397 60.842 41.004 61.43V64.205A3.653 3.653 0 0 0 44.653 67.854H55.348A3.653 3.653 0 0 0 58.995 64.205V61.4C69.74 60.747 79.469 58.721 88.035 55.361V86.348zM45.004 63.854V57.218H54.996V63.854zM58.996 57.378V56.87A3.653 3.653 0 0 0 55.349 53.219H44.653A3.654 3.654 0 0 0 41.004 56.87V57.421C28.476 56.703 17.245 54.092 7.605 49.622L7.652 27.217A0.99 0.99 0 0 1 8.63 26.241H91.374A0.99 0.99 0 0 1 92.35 27.22L92.396 49.051C82.987 53.791 71.754 56.576 58.996 57.378" fill="#2563eb" data-fill-palette-color="accent"></path></g></svg></g></svg></g></svg></g><defs></defs></svg><rect width="395.52" height="64.53170174667675" fill="none" stroke="none" visibility="hidden"></rect></g></svg></g></svg>